<svg width="107" height="107" viewBox="0 0 107 107" fill="none" xmlns="http://www.w3.org/2000/svg">
<path fill-rule="evenodd" clip-rule="evenodd" d="M53.5 0C24.2175 0 0.5 23.9412 0.5 53.5C0.5 77.1738 15.6712 97.1694 36.7388 104.258C39.3887 104.726 40.3825 103.121 40.3825 101.717C40.3825 100.446 40.3162 96.2331 40.3162 91.7525C27 94.2269 23.555 88.4756 22.495 85.4662C21.8988 83.9281 19.315 79.18 17.0625 77.9094C15.2075 76.9062 12.5575 74.4319 16.9963 74.365C21.17 74.2981 24.1513 78.2437 25.145 79.8487C29.915 87.9406 37.5338 85.6669 40.5813 84.2625C41.045 80.785 42.4362 78.4444 43.96 77.1069C32.1675 75.7694 19.845 71.155 19.845 50.6912C19.845 44.8731 21.8988 40.0581 25.2775 36.3131C24.7475 34.9756 22.8925 29.4919 25.8075 22.1356C25.8075 22.1356 30.2463 20.7313 40.3825 27.6194C44.6225 26.4156 49.1275 25.8137 53.6325 25.8137C58.1375 25.8137 62.6425 26.4156 66.8825 27.6194C77.0188 20.6644 81.4575 22.1356 81.4575 22.1356C84.3725 29.4919 82.5175 34.9756 81.9875 36.3131C85.3662 40.0581 87.42 44.8062 87.42 50.6912C87.42 71.2219 75.0312 75.7694 63.2388 77.1069C65.16 78.7787 66.8163 81.9888 66.8163 87.0044C66.8163 94.16 66.75 99.9112 66.75 101.717C66.75 103.121 67.7438 104.793 70.3938 104.258C80.9152 100.673 90.0579 93.8469 96.5349 84.7415C103.012 75.6361 106.497 64.7096 106.5 53.5C106.5 23.9412 82.7825 0 53.5 0Z" fill="white"/>
</svg>
