<svg width="99" height="87" viewBox="0 0 99 87" fill="none" xmlns="http://www.w3.org/2000/svg">
<g clip-path="url(#clip0_25_255)">
<path d="M58.81 9.66518L81.35 20.0777C83.31 18.5351 85.76 17.7638 88.7 17.7638C94.09 17.7638 98.5 21.2347 98.5 25.4768C98.5 28.9477 95.56 32.0329 91.15 32.8042V53.2437C95.56 54.015 98.5 57.1002 98.5 60.571C98.5 64.8132 94.09 68.284 88.7 68.284C85.76 68.284 83.31 67.1271 81.35 65.5845L58.81 75.997C59.3 76.7683 59.3 77.5396 59.3 78.3109C59.3 82.5531 54.89 86.0239 49.5 86.0239C44.11 86.0239 39.7 82.5531 39.7 78.3109C39.7 77.5396 39.7 76.7683 40.19 75.997L17.16 66.3558C15.2 67.8984 12.75 68.6697 10.3 68.6697C4.91 68.6697 0.5 65.1988 0.5 60.9567C0.5 57.4858 3.44 54.4006 7.85 53.6293V32.8042C3.44 32.0329 0.5 28.9477 0.5 25.0912C0.5 20.849 4.91 17.3782 10.3 17.3782C12.26 17.3782 13.73 17.7638 15.2 18.5351C16.18 18.9208 16.67 19.6921 17.16 20.0777L39.7 9.66518C39.7 9.27953 39.7 8.50823 39.7 7.73693C39.7 3.49478 44.11 0.0239258 49.5 0.0239258C54.89 0.0239258 59.3 3.49478 59.3 7.73693C59.3 8.50823 59.3 9.27953 58.81 9.66518ZM56.36 13.136L85.76 53.6293H86.25V32.8042C81.84 32.0329 78.9 28.9477 78.9 25.4768C78.9 24.7055 78.9 24.3199 79.39 23.5486C79.39 23.5486 79.39 23.5486 79.39 23.1629L56.36 13.136ZM42.64 13.136L19.61 23.1629C19.61 23.9342 20.1 24.7055 20.1 25.4768C20.1 28.9477 17.16 32.0329 13.24 32.8042H12.75V53.2437H13.24L42.64 13.136ZM51.95 15.0643C50.97 15.0643 49.99 15.4499 49.01 15.4499C48.03 15.4499 47.05 15.4499 46.07 15.0643L17.16 55.5576C18.63 56.7145 19.61 57.8715 20.1 59.4141H79.39C79.88 57.8715 80.86 56.7145 82.33 55.5576L51.95 15.0643ZM56.85 73.6831L79.39 63.2706V62.8849H19.61V63.2706L42.15 73.6831C44.11 72.1405 46.56 71.3692 49.01 71.3692C52.44 70.9836 54.89 72.1405 56.85 73.6831Z" fill="white"/>
</g>
<defs>
<clipPath id="clip0_25_255">
<rect width="98" height="86" fill="white" transform="translate(0.5 0.0239258)"/>
</clipPath>
</defs>
</svg>
