<svg width="113" height="118" viewBox="0 0 113 118" fill="none" xmlns="http://www.w3.org/2000/svg">
<g clip-path="url(#clip0_24_62)">
<rect width="112.243" height="117.042" transform="matrix(1 -4.89588e-05 6.27282e-05 1 0.374756 0.95752)" fill="#121212"/>
<path fill-rule="evenodd" clip-rule="evenodd" d="M80.7202 84.2842C78.6668 89.1031 75.8939 91.2436 71.4789 91.2438C67.8849 91.244 64.3944 89.1038 62.854 85.8911C61.8267 83.6427 61.416 81.7155 61.4158 77.6478L86.1603 77.6466C86.16 72.9347 85.6468 70.0445 84.3114 67.0468C81.9498 61.5863 77.2265 58.4813 71.3738 58.4816C62.0295 58.4821 55.5617 66.0839 55.5624 77.3269C55.5631 88.3549 61.8269 95.7419 71.17 95.7414C78.0493 95.7411 83.3888 91.8863 85.5453 85.3551L80.7202 84.2842ZM61.7242 73.4715C62.0308 70.045 62.6474 68.3315 64.085 66.4041C66.0355 64.0487 68.4998 62.6569 71.4771 62.6567C76.9193 62.6564 80.205 66.7252 80.4115 73.4706L61.7242 73.4715ZM110.702 91.0282C108.854 91.3495 107.827 91.4564 106.594 91.4565C103.001 91.4566 101.152 89.6363 101.152 85.8887L101.149 50.0212L95.9134 50.2358L95.9156 85.0328C95.916 92.2063 99.2022 95.8463 105.671 95.846C107.211 95.8459 108.34 95.739 110.703 95.4176L110.702 91.0282ZM5.45636 89.9622C5.45617 86.8576 7.81785 84.394 10.7952 84.3939C13.7725 84.3938 16.1345 86.8571 16.1347 89.9617C16.1349 93.0663 13.7732 95.5299 10.7959 95.53C7.81855 95.5301 5.45656 93.0674 5.45636 89.9622ZM47.5551 95.7419L47.5538 73.794C47.5534 68.7609 47.1422 66.0844 46.4241 64.3715C44.5756 60.4102 40.879 57.9475 36.4639 57.9478C31.8433 57.948 29.0716 59.7685 25.5805 65.443L25.5801 58.9119L20.7539 58.9122L20.7562 95.7433L25.9929 95.743L25.9916 74.8643C25.9912 67.9052 29.9948 62.6587 35.5395 62.6585C40.057 62.6583 42.5215 65.7634 42.5219 71.5452L42.5234 95.7422L47.5551 95.7419Z" fill="white"/>
<path fill-rule="evenodd" clip-rule="evenodd" d="M69.5014 58.6948L107.8 58.6929L107.8 62.8686L69.5017 62.8705L69.5014 58.6948ZM45.2714 91.78L69.7085 91.7788L69.7087 95.8477L45.2717 95.8489L45.2714 91.78ZM17.8534 51.9525L17.8524 37.0693L15.1826 37.0695L10.9738 48.9544L6.66051 37.0699L4.09371 37.07L4.09464 51.9531L5.53236 51.9531L5.53154 38.8903L10.2554 51.9528L11.4876 51.9528L16.1074 38.8898L16.1082 51.9526L17.8534 51.9525ZM21.3449 51.9523L22.9876 51.9522L22.9869 40.9242L21.3442 40.9243L21.3449 51.9523ZM21.3441 38.8895L23.0898 38.8895L23.0897 37.0691L21.3439 37.0692L21.3441 38.8895ZM32.536 48.0972C32.2281 49.9176 31.304 50.8807 29.9693 50.8808C28.2236 50.8809 27.1969 49.168 27.1967 46.384C27.1965 43.7074 28.3255 41.9944 30.0719 41.9944C31.4065 41.9943 32.3307 42.9579 32.5358 44.7777L34.076 44.4564C33.6653 41.9936 32.2275 40.6019 30.0718 40.602C27.2994 40.6022 25.4513 42.9576 25.4515 46.384C25.4518 49.9174 27.1977 52.1658 29.9694 52.1656C31.0991 52.1656 32.0232 51.8443 32.8448 50.9875C33.4608 50.345 33.7688 49.7026 34.0768 48.3109L32.536 48.0972ZM37.9785 51.9515L37.9781 46.0628C38.0804 43.8144 39.6205 42.1014 41.5718 42.315L41.5717 40.6021L40.9557 40.6021C40.2365 40.6021 39.4155 41.0309 38.9019 41.5658C38.5939 42.1014 38.3884 42.4226 37.8754 43.4932L37.8753 40.9241L36.4376 40.9241L36.4383 51.9522L37.9785 51.9521L37.9785 51.9515ZM47.1159 40.6012C45.5757 40.6013 44.3436 41.2438 43.4195 42.5286C42.701 43.4923 42.2906 44.7772 42.2907 46.3832C42.2908 47.9893 42.5989 49.2741 43.3175 50.3446C44.1392 51.6294 45.2689 52.1649 46.9116 52.1648C49.7871 52.1646 51.7376 49.8092 51.7374 46.4896C51.7366 43.0638 49.8888 40.6011 47.1159 40.6012ZM47.0135 41.9935C47.8351 41.9935 48.6562 42.5284 49.1698 43.1708C49.6835 43.9207 49.9916 44.9911 49.9917 46.3828C49.9918 49.1663 48.8629 50.8798 47.014 50.8799C45.1658 50.88 44.036 49.1672 44.0358 46.3831C44.0358 45.0983 44.3437 43.9209 44.7542 43.2779C45.2683 42.5286 46.1918 41.9936 47.0135 41.9935ZM52.8667 49.0593C53.0723 50.0229 53.3798 50.5584 53.9965 50.9865C54.8176 51.8432 56.0498 52.1643 57.59 52.1643C60.1568 52.1641 61.9024 50.8792 61.9023 48.8451C61.9022 47.0247 60.8749 45.9542 58.7186 45.6331L56.6654 45.2045C55.4332 44.9903 54.9196 44.4553 54.9195 43.7061C54.9195 42.6356 55.8436 41.9931 57.2813 41.993C58.5134 41.993 59.4376 42.5279 59.9513 43.8133L61.4914 43.3851C60.8747 41.5648 59.4375 40.6012 57.2812 40.6013C54.8169 40.6014 53.2768 41.8864 53.2769 43.8136C53.277 45.4197 54.3037 46.5976 56.1519 46.9181L58.4107 47.3467C59.5398 47.561 60.1565 48.2034 60.1566 49.0595C60.1566 50.13 59.1295 50.88 57.6924 50.88C56.6658 50.8801 55.7416 50.5589 55.1255 50.024C54.8174 49.7028 54.6119 49.381 54.4069 48.7392L52.8667 49.0593ZM68.3712 40.6002C66.8304 40.6002 65.5983 41.2427 64.5718 42.5276C63.8533 43.4913 63.4428 44.7761 63.4429 46.3822C63.443 47.9882 63.8536 49.2731 64.4704 50.3435C65.394 51.6283 66.5231 52.1638 68.0645 52.1638C70.9399 52.1636 72.8899 49.8082 72.8897 46.4886C72.8889 43.0628 71.143 40.6 68.3712 40.6002ZM68.1652 41.9925C69.0899 41.9924 69.911 42.5273 70.424 43.1697C70.9382 43.9196 71.1427 44.9901 71.1428 46.3818C71.1429 49.1652 70.014 50.8788 68.1657 50.8789C66.3175 50.879 65.2902 49.1661 65.29 46.3821C65.2899 45.0973 65.496 43.9199 66.0084 43.2768C66.4194 42.5275 67.3441 41.9925 68.1652 41.9925ZM79.8706 40.9214L77.3038 40.9215C77.3037 39.7442 77.3037 39.6367 77.5098 39.2086C77.7148 38.4593 78.4333 38.1381 79.4605 38.138C79.871 38.138 80.0772 38.138 80.4877 38.2448L80.4876 36.8531C79.769 36.7463 79.3585 36.7463 78.9474 36.7463C77.6122 36.7464 76.4831 37.3889 76.0721 38.4594C75.866 39.1018 75.866 39.5299 75.7642 40.9222L73.9159 40.9223L73.916 42.314L75.7643 42.3139L75.7649 51.9502L77.3051 51.9502L77.3045 42.3139L79.8713 42.3137L79.8712 40.9214L79.8706 40.9214ZM87.3673 50.7711C86.8531 50.878 86.4426 50.878 86.1345 50.878C85.0054 50.8781 84.3887 50.3432 84.3887 49.1652L84.3882 42.3129L86.7507 42.3128L86.7506 40.9211L84.3881 40.9212L84.388 38.0303L82.8478 38.1372L82.7455 40.9207L80.8972 40.9208L80.8973 42.3125L82.7456 42.3124L82.746 48.9509C82.7461 51.0919 83.7734 52.2698 85.826 52.2697C86.2365 52.2697 86.6482 52.1628 87.3668 52.1628L87.3667 50.7711L87.3673 50.7711ZM109.649 60.9413L109.649 58.9071L110.264 58.9071L110.264 58.6928L108.724 58.6928L108.724 58.9072L109.341 58.9071L109.341 60.9413L109.649 60.9413ZM112.627 60.9411L112.626 58.6926L112.112 58.6927L111.497 60.5131L110.881 58.6927L110.47 58.6927L110.47 60.9412L110.778 60.9412L110.778 59.0139L111.497 60.9412L111.599 60.9412L112.318 59.0139L112.319 60.9411L112.627 60.9411Z" fill="white"/>
</g>
<defs>
<clipPath id="clip0_24_62">
<rect width="112.243" height="117.042" fill="white" transform="matrix(1 -4.89588e-05 6.27282e-05 1 0.374756 0.95752)"/>
</clipPath>
</defs>
</svg>
