<svg width="123" height="118" viewBox="0 0 123 118" fill="none" xmlns="http://www.w3.org/2000/svg">
<path d="M87.8234 99.8674C87.4118 100.044 87.4461 100.103 87.8234 99.9263C87.9606 99.8968 88.0635 99.8084 88.1321 99.7495C88.1664 99.6906 88.1664 99.6906 87.8234 99.8674ZM88.6466 99.4844C88.4408 99.6317 88.4408 99.6317 88.6809 99.5434C88.8181 99.4844 88.921 99.4255 88.921 99.3961C88.921 99.3077 88.8524 99.3372 88.6466 99.4844ZM89.1954 99.2193C88.9896 99.3666 88.9896 99.3666 89.2297 99.2783C89.3669 99.2193 89.4698 99.1604 89.4698 99.131C89.4355 99.0426 89.4012 99.0721 89.1954 99.2193ZM89.7099 98.9248C89.5041 99.0721 89.5041 99.0721 89.7442 98.9542C89.8814 98.8953 89.9843 98.8364 89.9843 98.807C89.9843 98.7775 89.9157 98.7775 89.7099 98.9248ZM90.4645 98.5124C90.0872 98.7186 89.95 98.8659 90.293 98.7186C90.5331 98.6008 90.9104 98.3357 90.8418 98.3357C90.7046 98.3946 90.5674 98.4535 90.4645 98.5124ZM57.6398 11.5302C57.3997 11.5302 56.6451 11.6186 55.9934 11.648C40.387 12.8557 25.8097 20.0723 16.5488 31.177C11.4382 37.2743 8.1111 44.3437 6.87631 51.7665C6.43042 54.3586 6.36182 55.1244 6.36182 58.6296C6.36182 62.1348 6.43042 62.9007 6.84201 65.4927C9.82608 83.1955 24.5063 98.0706 44.3658 103.579C47.933 104.551 51.7059 105.228 55.9591 105.641C57.6055 105.788 64.8084 105.788 66.4548 105.641C73.8292 104.934 80.0717 103.373 86.2456 100.663C87.206 100.25 87.3775 100.132 87.2403 100.044C84.222 96.6273 81.2722 93.2104 78.2881 89.7641L69.5074 79.602L58.5315 65.64C54.8615 60.9566 51.1914 56.3026 47.4528 51.6781C47.4185 51.6781 47.3842 57.8932 47.3499 65.4633C47.3156 78.7477 47.3156 79.2779 47.1098 79.5725C46.904 79.926 46.5953 80.25 46.1494 80.4267C45.8064 80.574 45.4977 80.6034 43.8856 80.6034H42.0334L41.5532 80.3383C41.2445 80.1616 41.0044 79.926 40.8329 79.6609L40.6614 79.219V60.7504L40.6957 42.2818L41.0387 41.9283C41.2445 41.6927 41.5189 41.5159 41.8276 41.3687C42.2735 41.1919 42.445 41.1625 44.2972 41.1625C46.4924 41.1625 46.8354 41.2214 47.4185 41.781C51.8774 47.466 56.3021 53.1803 60.6581 58.8947C67.7924 68.1732 77.5335 80.8391 82.3012 87.0542L91.0133 98.3651L91.4249 98.1295C95.6094 95.7436 99.4167 92.8864 102.675 89.6168C109.604 82.8126 114.063 74.4472 115.606 65.5222C116.086 62.9301 116.121 62.1643 116.121 58.6296C116.121 55.1244 116.052 54.3586 115.606 51.7665C112.656 34.0637 97.9761 19.2181 78.0823 13.7099C74.378 12.7084 70.5364 12.0015 66.6606 11.648C65.6316 11.5597 58.5315 11.4418 57.6398 11.5302ZM80.106 40.0137C80.6205 40.2199 80.9978 40.6323 81.2036 41.0741C81.3065 41.3097 81.3065 46.435 81.3065 57.9816L81.2722 74.5356L77.8765 70.0583L74.4466 65.5811V53.5633C74.4466 45.7575 74.4809 41.3981 74.5152 41.1919C74.6867 40.6912 75.064 40.2788 75.5785 40.0137C75.9901 39.837 76.1615 39.8075 77.8765 39.8075C79.4886 39.837 79.7287 39.8664 80.106 40.0137Z" fill="white"/>
</svg>
