<svg width="88" height="86" viewBox="0 0 88 86" fill="none" xmlns="http://www.w3.org/2000/svg">
<path d="M9.7026 61.0476H40.8836M12.8207 25.1191H53.3559C58.532 25.1191 62.7102 29.1311 62.7102 34.1012C62.7102 39.0714 58.532 43.0834 53.3559 43.0834H25.2931M25.2931 25.1191V61.0476M44.0017 43.0834H50.2378C57.0977 43.0834 62.7102 48.4727 62.7102 55.0596C62.7102 58.353 65.5165 61.0476 68.9464 61.0476H78.3007M44.0017 1.16675L52.3582 7.81353L62.8973 5.29853L67.4497 14.7597L78.1136 16.9154L77.9265 27.3347L86.5325 33.6821L81.7306 43.0834L86.5948 52.4248L77.9889 58.7722L78.176 69.1914L67.5121 71.3472L62.9597 80.8083L52.4205 78.2933L44.0017 85L35.6452 78.3532L25.106 80.8682L20.5536 71.407L9.88968 69.2513L10.0768 58.8321L1.47083 52.4248L6.33505 43.0834L1.47083 33.742L10.0768 27.3946L9.88968 16.9753L20.5536 14.8196L25.106 5.35841L35.6452 7.87341L44.0017 1.16675Z" stroke="white" stroke-linejoin="round"/>
</svg>
